<?xml version="1.0" standalone="no"?>
<!DOCTYPE svg PUBLIC "-//W3C//DTD SVG 1.0//EN" "http://www.w3.org/TR/2001/REC-SVG-20010904/DTD/svg10.dtd">
<svg xmlns="http://www.w3.org/2000/svg" xmlns:xlink="http://www.w3.org/1999/xlink" id="body_1" width="800" height="800">

<g transform="matrix(1.6161518 0 0 1.6161518 -0 2.466052E-05)">
	<g>
        <path d="M164.711 456.687C 164.711 459.653 166.358 462.37302 168.977 463.759C 171.59401 465.144 174.776 464.966 177.222 463.29102L177.222 463.29102L232.312 425.67502L164.712 393.45502L164.712 456.687L164.711 456.687z" stroke="none" fill="#000000" fill-rule="nonzero" />
        <path d="M492.431 32.443C 490.918 31.048 488.965 30.318 486.991 30.318C 485.801 30.318 484.61398 30.582 483.491 31.134L483.491 31.134L7.905 264.422C 3.0440001 266.811 -0.031999588 271.775 0.0010004044 277.205C 0.034000404 282.628 3.1620004 287.55798 8.058001 289.89398L8.058001 289.89398L133.40001 349.61798L384.02002 143.62798L164.455 364.414L320.6 438.814C 322.518 439.733 324.612 440.19 326.68402 440.19C 328.45203 440.19 330.20303 439.868 331.87003 439.213C 335.50702 437.77502 338.39703 434.89502 339.84003 431.25702L339.84003 431.25702L494.436 41.257C 495.66 38.188 494.862 34.679 492.431 32.443z" stroke="none" fill="#000000" fill-rule="nonzero" />
	</g>
</g>
</svg>